<?xml version="1.0" encoding="utf-8"?>
<!-- Generator: Adobe Illustrator 22.1.0, SVG Export Plug-In . SVG Version: 6.00 Build 0)  -->
<svg version="1.1" id="Layer_1" xmlns="http://www.w3.org/2000/svg" xmlns:xlink="http://www.w3.org/1999/xlink" x="0px" y="0px"
	 viewBox="0 0 3054 529" style="enable-background:new 0 0 3054 529;" xml:space="preserve">
<style type="text/css">
	.st0{fill:#72819e;}
</style>
	<g>
	<path class="st0" d="M3054,5c0,173,0,346,0,519c-41.9338379,0-83.8676758,0-126.4570313,0
		c0-96.5774231,0-192.5232849,0-289.8216553c-45.8552246,56.0230103-90.7817383,110.9115295-136.0131836,166.1726685
		c-45.032959-55.3111572-89.8029785-110.2993469-134.572998-165.2875061
		c-0.4023438,0.1910858-0.8044434,0.3821716-1.2067871,0.5732727c0,96.0501099,0,192.1002197,0,287.9668579
		c-42.2436523,0-83.9760742,0-125.623291,0c0-172.9848022,0-345.5731506,0-518.2033691
		c0.7412109-0.1674719,1.2077637-0.3648071,1.6745605-0.3652372c23.6650391-0.0217781,47.3303223-0.0798264,70.9943848,0.0823507
		c1.6289063,0.0111637,3.7216797,1.296566,4.8010254,2.6333971
		c46.8823242,58.0730972,93.6726074,116.2201767,140.4780273,174.3553619
		c14.4104004,17.8987732,28.8303223,35.7897034,43.3376465,53.7979279c0.8496094-0.921524,1.5654297-1.6143799,2.1870117-2.3833771
		c60.526123-74.8916931,121.0649414-149.7733459,181.4914551-224.7452393
		c2.3747559-2.9466515,4.7868652-3.8734426,8.4169922-3.8507404C3007.0043945,5.0716629,3030.5024414,5.0000067,3054,5z"/>
		<path class="st0" d="M2236,0.000003c6.677002,0.9486923,13.3532715,1.9003617,20.0307617,2.845582
		c54.5651855,7.7238045,101.1672363,31.6252327,140.8669434,69.4647827
		c31.7468262,30.2593002,56.7561035,65.2807693,69.3330078,107.5161057
		c26.3745117,88.5713501,16.0473633,171.8643188-41.5651855,246.1342773
		c-40.3652344,52.0354309-92.7155762,86.3187256-158.2939453,98.5079346
		c-8.8166504,1.6387939-17.7976074,2.3873901-26.6960449,3.5963745C2238.4309082,528.2341919,2237.2243652,528.6814575,2236,529
		c-14,0-28,0-42,0c-9.1821289-1.2961426-18.4013672-2.3754272-27.5405273-3.9242554
		c-51.6381836-8.7507935-95.8125-32.165741-133.487915-68.2561951
		c-31.7980957-30.4602356-55.8123779-65.939209-69.5002441-108.0391541
		c-8.2435303-25.3546753-12.1612549-51.3826294-12.7144775-78.0467529
		c-0.8812256-42.4686279,5.7277832-83.5673218,25.4141846-121.3672028
		c41.9155273-80.4826965,106.1583252-131.7484131,197.1949463-146.5062256
		C2180.2185059,1.7493749,2187.1208496,0.9462006,2194,0.0000017C2208,0.0000002,2222,0.0000002,2236,0.000003z
		 M2213.8256836,409.6810913c5.6123047-0.2518616,10.4379883-0.4121704,15.2553711-0.7080078
		c2.4885254-0.1527405,4.9753418-0.4630432,7.4411621-0.8430176c51.1713867-7.8858337,87.034668-35.5597229,106.416748-83.6152954
		c10.6977539-26.5240784,12.1367188-54.4588318,8.9465332-82.5976563
		c-4.1660156-36.7471008-19.5788574-67.7845001-48.0927734-91.8965912
		c-27.3012695-23.0867004-59.1674805-32.5406647-94.4367676-31.1315689
		c-54.5100098,2.177803-94.0512695,28.0744095-118.2849121,76.7497177
		c-12.3969727,24.8998108-15.1862793,51.8805542-13.8913574,79.3388672
		c1.1279297,23.9184265,6.0888672,46.9924011,18.4628906,67.7383423
		C2122.4367676,387.63797,2162.7741699,408.9296875,2213.8256836,409.6810913z"/>
		<path class="st0" d="M219,0.0000014c8.8186646,1.3448732,17.704071,2.3536618,26.4450989,4.0894675
		c54.4177246,10.8063488,101.1944275,35.256218,137.7802124,77.7182617
		c1.2929688,1.5006332,2.5107117,3.0660858,4.0095215,4.9027634c-12.6245728,11.3936386-25.091095,22.6446152-37.502533,33.8458862
		c-7.46521-6.9737015-14.4290771-14.3853226-22.2929993-20.6708527
		c-37.1630249-29.7038193-79.7380219-44.6291733-127.2616882-45.7410774
		c-26.513443-0.6203384-52.1083069,3.2595558-76.1763458,14.9259529
		c-14.4978943,7.0275116-28.1480331,15.3355255-38.0472641,28.4388809
		c-15.1777878,20.0904312-18.9745407,42.6388016-12.5032043,66.6629868
		c4.5107422,16.745697,16.2953262,27.8786926,31.2226791,35.9167023c19.1634064,10.3190308,39.9487,15.624588,61.2345123,18.8388519
		c31.0995178,4.6962128,62.3867645,8.1900177,93.4277039,13.2221222
		c32.7311096,5.3060913,64.1151733,14.9141235,92.2658386,33.3070526
		c29.9604492,19.5754089,46.1234436,47.6693115,51.3071899,82.5345764
		c3.7710266,25.3632813,3.0971375,50.5133362-5.3946533,74.9891968
		c-11.1584778,32.1619873-33.303009,55.1937866-61.5111694,73.0374451
		c-30.3302002,19.1860046-63.734436,28.8849792-99.2558441,32.0159607C235.1487579,528.1751099,233.5816498,528.6700439,232,529
		c-15.3333282,0-30.6666718,0-46,0c-1.0586548-0.3001709-2.1030121-0.7921143-3.1780701-0.8723145
		c-22.6745911-1.6911621-44.9202118-5.69104-66.3703842-13.2903442
		c-44.7625427-15.8583679-81.884613-41.8458557-107.7306976-82.4716797C5.7145901,427.6402893,2.9022446,422.7915344,0,418
		c0.0000013-0.6666565,0.0000013-1.3333435,0.0000022-2c12.4748507-11.40448,24.9497013-22.80896,37.6070442-34.3802795
		c0.6793404,1.0372009,1.1023407,1.5489807,1.3823891,2.1297302c18.1194344,37.5751953,48.4316216,61.5576477,86.3381805,76.7462769
		c30.3570251,12.1636047,62.2862091,15.1333923,94.6340942,14.2583618
		c25.8891602-0.7003784,50.911026-5.5881653,74.1079559-17.783783
		c34.0638733-17.908783,54.0986633-44.6200562,52.7332153-84.5675354
		c-0.7388-21.6133423-7.2129822-40.9550476-23.8286743-55.7722168
		c-15.5514221-13.8681335-34.4600525-21.1159973-54.1566772-26.6331482
		c-29.9931946-8.4012756-61.0385895-9.9727173-91.7057495-13.9671936
		c-30.46521-3.9681702-60.4500198-9.8181152-88.882019-21.9299011
		c-21.0849915-8.9820099-40.3014717-20.6746063-54.5211716-39.1917572
		c-14.0964756-18.35672-20.1278763-39.4926147-21.0546608-62.3389587
		c-1.461277-36.0222168,8.172122-68.2716217,33.2976303-94.8047333
		c27.863369-29.4243507,62.6452446-46.1663208,102.0957794-53.7384911C156.6392975,2.3772264,165.3460999,1.326395,174,0
		C189,0.0000002,204,0.0000002,219,0.0000014z"/>
		<path class="st0" d="M1224.9208984,283.3716125c9.5681152-12.1725464,18.8140869-23.9245911,28.0489502-35.6853638
		c62.5488281-79.65802,125.1091309-159.3070984,187.5847168-239.0225372
		c2.1774902-2.7784023,4.3848877-3.7587242,7.9134521-3.751853c62.4925537,0.1216993,124.9926758-0.5205441,187.4764404,0.2274647
		c99.7104492,1.1936541,176.0668945,44.9037971,228.5228271,129.4684753
		c21.4812012,34.6303253,31.02771,73.3312378,33.0354004,113.8930206
		c3.8267822,77.315033-18.7193604,144.8648682-74.6868896,199.7813721
		c-46.5662842,45.6915894-102.4897461,70.7373352-167.6623535,74.8353577
		c-9.2995605,0.5848389-18.6345215,0.8355713-27.9534912,0.8452148C1559.7077637,524.0322266,1492.2155762,524,1424.7233887,524
		c-1.9698486,0-3.9395752,0-6.53479,0c0-135.401001,0-270.4012146,0-405.4013977
		c-0.3602295-0.1188354-0.7205811-0.2376709-1.0808105-0.3565063
		c-63.9783936,81.3118057-127.9567871,162.6235962-192.2458496,244.3303223
		c-64.3139648-81.7428284-128.2196045-162.9667816-192.1253662-244.1907349
		c-0.3513184,0.0850906-0.7027588,0.1701813-1.0541992,0.2552795c0,134.9719543,0,269.9439087,0,405.1384277
		c-19.6724854,0-38.6183472,0-57.87677,0c0-172.8334045,0-345.5673523,0-518.7658691
		c10.3429565,0,20.472168-0.1426163,30.5886841,0.1523333c1.5337524,0.0447149,3.3338623,1.8664875,4.4623413,3.2984734
		c26.0864868,33.101223,52.0961304,66.2630692,78.1222534,99.4119263
		c45.2617188,57.6488113,90.5245361,115.2967606,135.7900391,172.9425354
		C1223.2803955,281.4660645,1223.8347168,282.0837708,1224.9208984,283.3716125z M1571.3835449,124.2727966
		c0,93.5074005,0,186.7054443,0,280.0398865c22.1947021,0,44.0150146,0.3522644,65.8153076-0.1514893
		c10.5960693-0.244812,21.375-1.0971985,31.6929932-3.3826294c45.8986816-10.1667786,78.7841797-36.1469421,94.4379883-81.3417053
		c9.9067383-28.6026611,10.413208-58.1775513,5.6105957-87.809494
		c-10.5509033-65.0970459-60.2989502-101.5356293-114.5107422-106.2727509
		c-27.1292725-2.3706055-54.5782471-1.0813828-81.8828125-1.4334793
		C1572.2416992,123.9171982,1571.934082,124.100502,1571.3835449,124.2727966z"/>
		<path class="st0" d="M474.7338867,523.8410645c0-172.9866638,0-345.560791,0-518.5575562
		c1.7192078-0.0994701,3.309082-0.2714453,4.8989868-0.2718601c53.4882202-0.0139561,106.9779663-0.264925,160.4642944,0.0514708
		c69.5289917,0.4112949,130.9802856,22.3092842,182.4605713,69.9862747
		c46.1432495,42.7341385,71.5671997,95.6539154,77.5758667,158.0684509
		c4.4526978,46.2517853,0.395813,91.5370026-17.3511963,134.8376617
		c-23.3358765,56.9367676-63.8557739,98.3422546-117.8240967,126.8549805
		c-38.4611816,20.3200073-79.9985962,28.8161011-123.2061768,29.1018066
		c-54.4855957,0.3602295-108.9754028,0.0875244-163.4633789,0.0812988
		C477.2977295,523.9934692,476.3067322,523.9110107,474.7338867,523.8410645z M532.7493286,469.4935303
		c2.5602417,0,4.5335083,0,6.5067749,0c33.4882813,0.000061,66.9766235-0.0081177,100.4649048,0.0033569
		c18.7255249,0.0064392,37.3129272-1.6687622,55.3928223-6.546936
		c69.3517456-18.7120056,117.4693604-60.5528564,139.1849976-130.0914307
		c10.3789673-33.2359619,11.4151001-67.4799194,7.3000488-101.8458557
		c-3.7949829-31.692627-13.4423218-61.5244751-32.2485352-87.6205902
		c-40.4776001-56.1680756-96.7255859-82.179245-164.8773804-83.7419434
		c-35.4689331-0.8132896-70.9719238-0.1473808-106.4595337-0.1299286c-1.7457886,0.0008583-3.4914551,0.1910133-5.2640991,0.2945938
		C532.7493286,196.5495453,532.7493286,332.6225891,532.7493286,469.4935303z"/>
</g>
</svg>